# xmcd
#
# Track frame offsets:
#	150
#	12414
#	24726
#	35722
#	50470
#	62930
#	79794
#	99027
#	116816
#	126788
#	154344
#	166029
#	181396
#	202207
#	214374
#
# Disc length: 3123 seconds
#
# Revision: 2
# Processed by: cddbd v1.5.2PL0 Copyright (c) Steve Scherf et al.
# Submitted via: audiograbber 1.83.01
#
DISCID=d50c310f
DTITLE=Joe Sun - Heartbreak Saloon
DYEAR=1998
DGENRE=Country Rock
TTITLE0=Tonight The Bottle Let Me Down
TTITLE1=Heartbreak Saloon
TTITLE2=Some Lucky Stardust
TTITLE3=Hearts Of Gold
TTITLE4=Honky Tonk Hell
TTITLE5=Birmingham In The Rain
TTITLE6=Johnny B. Goode
TTITLE7=Better Yesterday
TTITLE8=Steppin' Stones
TTITLE9=House Of The Rising Sun
TTITLE10=Tearin' Up My Ticket To Tulsa
TTITLE11=Honky Tonkin' This World Round
TTITLE12=Dancin' Too Much
TTITLE13=Roll On Big River
TTITLE14=Forever Young
EXTD=
EXTT0=
EXTT1=
EXTT2=
EXTT3=
EXTT4=
EXTT5=
EXTT6=
EXTT7=
EXTT8=
EXTT9=
EXTT10=
EXTT11=
EXTT12=
EXTT13=
EXTT14=
PLAYORDER=
